<?xml version="1.0" standalone="no"?>
<!DOCTYPE svg PUBLIC "-//W3C//DTD SVG 20010904//EN"
 "http://www.w3.org/TR/2001/REC-SVG-20010904/DTD/svg10.dtd">
<svg version="1.0" xmlns="http://www.w3.org/2000/svg"
 width="512.000000pt" height="512.000000pt" viewBox="0 0 512.000000 512.000000"
 preserveAspectRatio="xMidYMid meet">
<metadata>
Created by potrace 1.16, written by Peter Selinger 2001-2019
</metadata>
<g transform="translate(0.000000,512.000000) scale(0.100000,-0.100000)"
fill="#000000" stroke="none">
<path d="M3422 5094 c-264 -78 -522 -236 -651 -398 -90 -113 -149 -248 -186
-426 -17 -81 -32 -288 -22 -313 5 -13 15 -13 84 -1 112 21 281 78 387 131 317
159 480 374 523 688 13 103 12 258 -4 323 -7 28 -25 28 -131 -4z"/>
<path d="M3270 3869 c-52 -11 -162 -47 -245 -81 -349 -140 -428 -157 -560
-123 -33 9 -132 45 -220 79 -283 113 -379 133 -579 123 -296 -15 -516 -117
-747 -347 -221 -219 -366 -495 -426 -805 -21 -111 -29 -443 -13 -591 70 -699
387 -1423 805 -1839 199 -199 364 -285 549 -285 102 0 185 21 381 95 253 96
339 118 469 118 115 -1 188 -19 393 -99 372 -145 501 -151 684 -33 80 52 258
197 327 267 117 119 248 324 382 597 81 164 183 403 178 416 -2 4 -38 26 -81
48 -298 157 -506 443 -593 816 -27 116 -25 341 4 449 27 96 95 243 158 336 62
93 184 222 283 300 45 35 81 67 81 71 0 17 -189 204 -261 258 -227 172 -425
239 -724 247 -124 3 -166 0 -245 -17z"/>
</g>
</svg>
